<?xml version="1.0" standalone="no"?><!DOCTYPE svg PUBLIC "-//W3C//DTD SVG 1.1//EN" "http://www.w3.org/Graphics/SVG/1.1/DTD/svg11.dtd"><svg t="1587705617004" class="icon" viewBox="0 0 1042 1024" version="1.1" xmlns="http://www.w3.org/2000/svg" p-id="794" width="203.515625" height="200" xmlns:xlink="http://www.w3.org/1999/xlink"><defs><style type="text/css"></style></defs><path d="M914.49191 401.406183c-38.347376-132.917242-151.325497-238.127446-295.475572-275.906887-24.756847-23.215748-58.865689-39.541575-105.836467-39.541575-35.142381 0-63.376423 12.082176-85.968977 30.236652-165.815513 26.356274-298.855552 140.02615-340.384387 287.303448L68.77641 403.49782c0 0-68.777433 0.905626-68.777433 68.085678 0 0 0 39.064714 0 91.78238 0 52.715619 68.705801 79.923284 68.705801 79.923284l40.005133 14.098089c16.037255 33.660634 37.118386 64.84589 62.350047 92.784196l0 105.557104c0 47.251164 38.301328 85.529979 85.528955 85.529979l24.437575 0c41.600467 0 76.259848-29.706579 83.932598-69.078285 42.72508 13.095249 88.454588 20.204158 136.00251 20.204158 47.545876 0 93.27743-7.099698 136.001487-20.193925 7.676843 39.366589 42.335201 69.068052 83.932598 69.068052l24.436552 0c47.227628 0 85.529979-38.278815 85.529979-85.529979l0-105.533568c61.062727-67.602677 97.747231-154.288992 97.747231-248.804622 0-19.333324-1.543146-38.335097-4.50664-56.917314 27.302833 6.667863 61.734016 27.78481 61.734016 91.924619 0 48.136324-40.498366 80.973196-40.498366 80.973196l27.015284 27.013237c0 0 54.004985-29.734208 54.004985-103.761202C1026.360767 420.163385 954.401876 402.62494 914.49191 401.406183zM513.179872 134.830825c85.936231-0.191358 97.748255 73.310679 97.748255 73.310679s-48.541553-23.671119-97.748255-24.436552c-47.89687-0.715291-97.676623 24.343431-97.676623 24.343431C415.287331 208.048383 438.556291 134.99967 513.179872 134.830825zM781.988084 731.152279l0 124.57525c0 20.236903-16.394389 36.655851-36.654828 36.655851l-24.436552 0c-20.262486 0-36.655851-16.418948-36.655851-36.655851l0-54.603619c-54.325279 27.143197-116.813472 42.600237-183.303816 42.600237-66.471924 0-128.942721-15.445784-183.254697-42.571584l0 54.574966c0 20.236903-16.395412 36.655851-36.654828 36.655851l-24.437575 0c-20.261463 0-36.654828-16.418948-36.654828-36.655851L219.935108 731.208561c-29.626761-29.52443-53.618175-63.74072-70.450539-101.267405-24.210401-8.53949-51.27071-18.428721-61.115939-23.307845-34.030048-16.848737-39.47199-38.566364-39.47199-38.566364s-0.333598-60.186777 0-89.969081c0.310062-24.436552 26.324552-25.726941 26.324552-25.726941l50.608631 0c20.472264-128.11282 119.615285-233.256508 251.811096-274.28597-27.467585 50.694589-35.450397 103.418394-35.450397 103.418394 0.048095 0 66.988694-48.827055 170.989349-48.922223 101.615329-0.096191 171.060981 48.874127 171.060981 48.874127s-1.882883-43.154869-20.735253-88.914052c127.974673 54.930053 216.44768 172.687014 216.44768 309.085544C879.95328 589.959559 842.866616 670.461011 781.988084 731.152279zM293.244764 379.203508c-26.990724 0-48.874127 21.883403-48.874127 48.874127 0 26.990724 21.883403 48.876174 48.874127 48.876174 26.990724 0 48.874127-21.88545 48.874127-48.876174C342.118891 401.085888 320.236512 379.203508 293.244764 379.203508z" p-id="795" fill="#d81e06"></path></svg>